<?xml version="1.0" encoding="utf-8"?>
<!-- Generator: Adobe Illustrator 16.0.0, SVG Export Plug-In . SVG Version: 6.00 Build 0)  -->
<!DOCTYPE svg PUBLIC "-//W3C//DTD SVG 1.1//EN" "http://www.w3.org/Graphics/SVG/1.1/DTD/svg11.dtd">
<svg version="1.1" id="Layer_1" xmlns="http://www.w3.org/2000/svg" xmlns:xlink="http://www.w3.org/1999/xlink" x="0px" y="0px"
	 width="778px" height="183px" viewBox="0 0 778 183" style="enable-background:new 0 0 778 183;" xml:space="preserve">
<g>
	<path style="fill-rule:evenodd;clip-rule:evenodd;fill:#9D9D9C;" d="M696.537,138.893l6.018-23.447h16.788
		c1.015,0,1.887-0.225,2.548-0.648c0.665-0.447,1.102-1.029,1.289-1.766c0.128-0.492,0.12-0.896-0.008-1.252
		c-0.107-0.357-0.418-0.693-0.876-1.051l-2.588-1.766c-5.533-3.936-8.911-7.266-10.148-9.992c-1.239-2.727-1.343-6.103-0.315-10.104
		c1.468-5.722,4.642-10.193,9.501-13.412c4.874-3.196,10.949-4.805,18.22-4.805h25.383l-5.564,21.682h-14.871
		c-0.817,0-1.54,0.245-2.19,0.715c-0.632,0.492-1.051,1.096-1.241,1.834c-0.103,0.402-0.063,0.758,0.11,1.117
		c0.151,0.357,0.45,0.648,0.845,0.916l2.247,1.631c0.044,0,0.12,0.045,0.23,0.135c9.288,6.729,13.023,13.635,11.194,20.766
		c-0.826,3.219-2.321,6.215-4.503,8.963c-2.16,2.75-4.789,5.008-7.857,6.75c-2.41,1.32-4.987,2.258-7.779,2.84
		c-2.777,0.604-6.927,0.895-12.479,0.895h-1.632H696.537L696.537,138.893z M466.71,132.746c-1.494,0.416-5.82,1.496-7.265,1.729
		c-1.423,0.229-2.755,0.338-3.993,0.338c-8.441,0-14.528-2.936-18.232-8.828c-3.71-5.871-4.306-13.621-1.818-23.232
		c1.165-4.496,3.083-8.742,5.744-12.776c2.656-4.013,5.89-7.581,9.67-10.665c3.946-3.147,8.117-5.555,12.524-7.244
		c4.427-1.689,8.783-2.534,13.088-2.534c7.266,0,13.106,2.026,17.532,6.103c4.41,4.055,6.769,9.546,7.076,16.474
		c0.072,2.068-0.052,4.33-0.412,6.779c-0.342,2.449-1.063,5.807-2.162,10.053l-0.596,2.303l-4.392,16.959
		c-3.139,12.121-8.316,21.012-15.516,26.672c-7.193,5.641-16.957,8.469-29.265,8.469c-3.927,0-7.897-0.316-11.897-0.93
		c-4.021-0.611-8.065-1.541-12.172-2.787l5.729-22.133c3.807,1.438,7.313,2.492,10.526,3.146c3.212,0.656,6.274,0.994,9.193,0.994
		c5.418,0,9.431-0.914,12.04-2.703C464.031,137.615,465.55,135.602,466.71,132.746L466.71,132.746z M470.638,96.844
		c3.923,0,6.068,3.516,4.774,7.828c-1.297,4.313-5.552,7.828-9.475,7.828c-3.922,0-6.066-3.516-4.771-7.828
		S466.716,96.844,470.638,96.844L470.638,96.844z M279.586,70.484c0.459-0.045,4.038-0.373,4.48-0.393
		c9.409-0.433,18.866,1.87,24.448,9.567c4.635,6.394,5.612,14.887,2.946,25.438c-1.182,4.672-3.164,9.164-5.913,13.434
		c-2.75,4.268-6.121,8.068-10.087,11.398c-4.06,3.264-8.342,5.791-12.842,7.533c-4.521,1.744-8.994,2.617-13.443,2.617
		c-7.508,0-13.52-2.146-18.083-6.416c-4.558-4.291-7.001-10.082-7.295-17.412c-0.085-2.326,0.054-4.852,0.46-7.578
		c0.387-2.727,1.291-6.908,2.716-12.541l12.893-51.007h26.128L279.586,70.484L279.586,70.484z M280.634,97.197
		c3.923,0,6.068,3.516,4.774,7.828c-1.296,4.313-5.551,7.828-9.474,7.828c-3.922,0-6.067-3.516-4.772-7.828
		C272.457,100.713,276.712,97.197,280.634,97.197L280.634,97.197z M501.153,138.893l22.279-93.769h24.618l-7.174,30.198
		c2.62-2.012,5.204-3.532,7.706-4.538c2.504-1.006,4.987-1.498,7.413-1.498c6.283,0,10.585,2.504,12.907,7.488
		c2.319,5.007,2.396,12.07,0.228,21.19l-9.723,40.928h-24.619l9.271-39.027c0.371-1.564,0.252-2.861-0.365-3.867
		s-1.582-1.498-2.887-1.498c-1.327,0-2.524,0.492-3.6,1.498c-1.076,1.006-1.792,2.303-2.164,3.867l-9.272,39.027H501.153
		L501.153,138.893z M381.511,138.893l15.39-68.242h23.931l-2.229,9.879c2.548-3.397,5.416-5.901,8.582-7.488
		c3.165-1.586,6.949-2.391,11.284-2.391h1.646l-5.435,24.096c-6.465,0-11.533,1.697-15.18,5.074
		c-3.647,3.375-6.333,8.852-8.036,16.406l-5.112,22.666H381.511L381.511,138.893z M345.114,116.059
		c7.097,4.033,21.623,2.504,26.442-2.297l3.399,17.922c-5.381,7.568-31.102,10.18-41.175,7.209c-2.669-0.783-5.004-1.945-7.05-3.465
		c-4.136-3.197-6.972-7.488-8.47-12.943c-1.524-5.432-1.524-11.354,0-17.77c1.131-4.76,3.005-9.299,5.615-13.59
		c2.61-4.291,5.849-8.135,9.665-11.489c3.746-3.397,7.788-5.991,12.117-7.733c4.312-1.744,8.761-2.616,13.35-2.616
		c7.282,0,13.165,2.28,17.636,6.818c4.49,4.538,7.162,10.975,8.057,19.312L345.114,116.059L345.114,116.059z M341.715,102.387
		l17.341-9.184c-0.597-1.005-1.36-1.743-2.284-2.235c-0.929-0.47-1.992-0.715-3.236-0.715c-2.549,0-4.973,1.249-7.275,3.754
		C344.178,96.273,342.659,99.084,341.715,102.387L341.715,102.387z M708.493,72.481c-3.148,10.13-6.168,20.676-9.097,31.658
		c-2.912,10.98-5.779,22.594-8.604,34.861h-23.181l1.6-6.951c-3.078,3.182-6.057,5.447-8.938,6.797
		c-2.873,1.33-6.218,2.004-10.016,2.004c-6.015,0-9.986-1.807-11.935-5.402c-1.947-3.594-2.021-9.303-0.218-17.125
		c0.541-2.352,2.168-8.584,4.9-18.717c2.718-10.13,5.057-19.173,7.014-27.125h23.23c-2.044,7.146-3.742,13.268-5.087,18.345
		c-1.35,5.098-2.494,9.717-3.452,13.879c-0.833,3.615-1.076,6.252-0.717,7.887c0.356,1.635,1.314,2.463,2.91,2.463
		c2.777,0,5.264-2.42,7.494-7.256c2.211-4.816,5.579-16.603,10.067-35.318H708.493L708.493,72.481z M606.513,122.797
		c0.981-3.906,1.879-7.717,2.712-11.316c-3.874,0.357-7.04,1.248-9.491,2.652c-2.455,1.426-3.895,3.164-4.304,5.258
		c-0.286,1.473-0.114,2.629,0.52,3.455s1.669,1.248,3.108,1.248c0.415,0,0.878-0.025,1.398-0.09
		C600.996,123.939,605.671,122.928,606.513,122.797L606.513,122.797z M603.223,135.51c-1.89,0.406-11.169,4.465-12.676,4.629
		c-1.507,0.166-2.911,0.268-4.218,0.268c-6.134,0-10.558-1.783-13.27-5.35c-2.694-3.564-3.428-8.533-2.188-14.885
		c1.13-5.795,3.53-10.518,7.183-14.195s8.745-6.484,15.254-8.402c2.585-0.734,5.768-1.514,9.546-2.338
		c5.567-1.272,8.56-2.921,8.96-4.97c0.213-1.091,0.019-1.94-0.556-2.585c-0.578-0.625-1.502-0.936-2.751-0.936
		c-2.255,0-5.529,0.579-9.846,1.738c-4.312,1.137-8.995,2.719-14.043,4.725l6.314-20.124c4.671-1.426,9.275-2.518,13.775-3.253
		c4.518-0.736,8.928-1.115,13.264-1.115c8.351,0,14.248,1.404,17.652,4.236c3.405,2.83,4.509,7.265,3.339,13.259
		c-0.157,0.802-0.371,1.805-0.652,3.053c-0.277,1.226-0.601,2.585-0.966,4.078l-8.062,34.208c-0.053,0.266-0.166,0.846-0.345,1.76
		c-0.749,3.453-1.4,6.596-1.962,9.471h-24.634C602.639,137.68,602.93,136.576,603.223,135.51L603.223,135.51z"/>
	<path style="fill-rule:evenodd;clip-rule:evenodd;fill:#9D9D9C;" d="M39.822,38.793C43.94,24.371,46.614,15,70.267,15h138.202
		c33.663,0,29.459,26.231,25.262,40.934l-26.58,93.471c-3.09,13.311-13.586,22.393-28.363,22.393H34.843
		c-15.899,0-28.532-15.598-23.859-31.969L39.822,38.793L39.822,38.793z"/>
	<path style="fill-rule:evenodd;clip-rule:evenodd;fill:#004A93;" d="M73.567,31.418h45.106c15.752,0,13.938,8.19,11.933,15.211
		l-26.601,93.199c-2.851,9.984-9.044,16.371-18.668,16.371h-43.2c-9.139,0-16.438-8.066-14.067-16.371l27.055-94.791
		C56.962,38.602,60.321,31.418,73.567,31.418L73.567,31.418z"/>
	<path style="fill-rule:evenodd;clip-rule:evenodd;fill:#E30613;" d="M163.929,31.418h45.105c15.753,0,13.938,8.19,11.934,15.211
		l-26.602,93.199c-2.85,9.984-9.043,16.371-18.668,16.371h-43.2c-9.139,0-16.438-8.066-14.067-16.371l27.055-94.791
		C147.324,38.602,150.682,31.418,163.929,31.418L163.929,31.418z"/>
	<path style="fill-rule:evenodd;clip-rule:evenodd;fill:#9D9D9C;" d="M762.348,49.918c0,3.142-1.105,5.823-3.328,8.045
		c-2.217,2.228-4.898,3.339-8.04,3.339s-5.823-1.111-8.052-3.339c-2.222-2.222-3.332-4.904-3.332-8.045
		c0-3.147,1.11-5.829,3.332-8.051c2.229-2.222,4.91-3.333,8.052-3.333s5.823,1.111,8.04,3.333
		C761.242,44.089,762.348,46.771,762.348,49.918L762.348,49.918z M761.083,49.918c0-2.792-0.985-5.178-2.961-7.153
		c-1.971-1.976-4.351-2.967-7.143-2.967c-2.803,0-5.188,0.991-7.159,2.967c-1.97,1.976-2.961,4.362-2.961,7.153
		c0,2.786,0.991,5.172,2.961,7.148c1.971,1.981,4.356,2.967,7.159,2.967c2.792,0,5.172-0.985,7.143-2.967
		C760.098,55.09,761.083,52.705,761.083,49.918L761.083,49.918z M745.736,43.279h5.823c1.396,0,2.446,0.295,3.147,0.887
		c0.7,0.597,1.051,1.324,1.051,2.189c0,0.783-0.258,1.445-0.767,1.992c-0.515,0.542-1.346,0.931-2.49,1.166l3.24,4.154
		c0.416,0.525,0.761,0.876,1.029,1.062c0.191,0.115,0.46,0.197,0.799,0.241v0.509h-2.726l-4.521-5.708h-1.188v3.158
		c0,0.859,0.099,1.401,0.296,1.631c0.202,0.23,0.607,0.367,1.231,0.411v0.509h-5.068V54.97c0.63-0.044,1.046-0.186,1.248-0.427
		s0.307-0.755,0.307-1.549v-7.329c0-0.706-0.104-1.182-0.307-1.423c-0.202-0.247-0.569-0.399-1.105-0.449V43.279L745.736,43.279z
		 M749.135,49.004c0.367,0.022,0.635,0.033,0.821,0.033c1.248,0,2.156-0.235,2.726-0.706c0.563-0.471,0.849-1.095,0.849-1.861
		c0-0.728-0.252-1.33-0.761-1.812c-0.51-0.482-1.204-0.723-2.097-0.723c-0.427,0-0.936,0.093-1.538,0.29V49.004L749.135,49.004z"/>
</g>
</svg>
